<svg xmlns="http://www.w3.org/2000/svg" viewBox="0 0 256 256"><defs><style>.cls-1{fill:#fff;}.cls-2{fill:none;stroke:#231f20;stroke-miterlimit:10;stroke-width:10px;}.cls-3{fill:#bc1c80;}.cls-4{fill:#ef7ab0;}</style></defs><g id="Layer_5" data-name="Layer 5"><polygon class="cls-1" points="211.78 16.57 246.74 69.78 250.91 169.44 192.48 178.83 211.78 215.87 193 253.96 94.69 243 45.65 198.35 71.44 175.17 7.26 152.22 26.57 112.56 0.48 83.87 69.87 0.91 211.78 16.57"/><polygon class="cls-2" points="202.07 28.29 237.55 73.44 231.12 151.72 178.39 169 189.01 209.5 176.75 228.4 99.99 228.93 64.81 195.84 90.22 170.56 27.61 139.78 35.96 111.61 21.35 88.65 84.48 22.39 202.07 28.29"/></g><g id="Jaw_Shading" data-name="Jaw Shading"><path class="cls-3" d="M171.62,181.71c9.3,5,4.07,23.29-.93,26.34-17.77,10.84-67.61,3.13-73.62-.69s-12.49-10-4.7-17.1c39.53-5,31.95-8.77,40.66-10.77C146.94,176.31,164.83,178.08,171.62,181.71Z"/></g><g id="MAIN"><path class="cls-4" d="M99.66,147.19c30,11,25.26,19.59,46.52,22.76a12.23,12.23,0,0,0,13.51-15.51,44.54,44.54,0,0,0-2.48-6.5s50.94,16.84,58.33-13.76c6.14-25.42-1.06-78.35-35-91.4C147.26,30,95.56,30.09,62.92,64.15s5.78,51.79,5.78,51.79a49,49,0,0,0-11.76,6.78,9.78,9.78,0,0,0-1.6,13.33,8,8,0,0,0,2.31,2.1C64.88,142.44,72.27,138.1,99.66,147.19Z"/><path class="cls-4" d="M91,190.19c7.14-7.57,68.57-3.87,75.69.64,8.64,5.47,9,14.17,4,17.22-17.77,10.84-67.61,3.13-73.62-.69S83.77,197.87,91,190.19Z"/></g><g id="Eyes"><path class="cls-3" d="M167.58,104.41c-6.27-15.79-12.22-36.38-4.46-38.36s9.6,17.36,10.4,36.65c10.5-6,29-14.33,31.91-7.63,2.16,5.05-13.62,12.71-31.5,13.21,7.36,8.42,9.3,24.65,5.38,26.06s-9.86-8.52-10.6-25.14c-14.29,9-27.93,7.29-29.6,3S149.23,103.17,167.58,104.41Z"/><path class="cls-3" d="M81.73,79.88c-5.68-4-6.35-14.79-4-16s5.16,4.46,7.7,13c4.74-9.46,14.49-19.65,17.59-17.05S99.74,73.51,88.24,81c5,5.9,5.47,17.27,3.44,18.86C88.93,102,83.93,91.3,83.6,83.47c-4.87,6.18-12.39,12.16-13.8,9.6C68,89.78,74.19,83.69,81.73,79.88Z"/><path class="cls-3" d="M99.75,109.23c.26,3.31,8.37-1.08,11.86.24s8.83,8.59,11.28,8.23c4.34-.64,11.46-37.31,6.33-39.18C123.86,76.58,99.3,103.55,99.75,109.23Z"/><path class="cls-3" d="M67.85,140.5c-2.61-5.22-3.2-7.24-1.63-10.11s5.21-5.74,7.56-6-1.82,4.7-2.35,7.31S72.61,141,72.61,141Z"/><path class="cls-3" d="M93.45,145.1l7.53,2.54s-.3-5.09,1.47-8.9,4-8.22,4.1-10.17-4.58.6-7.33,3.61C90.9,141.28,93.45,145.1,93.45,145.1Z"/><path class="cls-3" d="M120.67,157.46l6.72,4.89s5.81-4.89,6.46-9.07-.26-11.87-1.7-11.41-2.61,7.43-4.3,9.33S122,155.83,120.67,157.46Z"/><path class="cls-3" d="M120.64,185.78h7s-1.76,3.84-1.69,6.06,1.56,5.81.85,6.52-5.22-3.06-5.68-5.54A36.31,36.31,0,0,1,120.64,185.78Z"/><path class="cls-3" d="M145.07,186.54l6.45.66a42.34,42.34,0,0,1-1,6.65c-.72,2.48-1.56,5-3.13,4.69-1.37-.22-.3-3.4-.72-6.71C146.32,189.41,145.59,188.37,145.07,186.54Z"/><path class="cls-3" d="M101.47,186.84s3.62-.43,4.17-.43c0,0-2,1.05-.88,5.16.45,1.57,1.81,4.23,1.47,4.92-.46.91-3.3-1.44-4.24-3.13-.62-1.11-1.79-2.64-1.4-4.47S101.47,186.84,101.47,186.84Z"/></g></svg>